<?xml version="1.0" encoding="UTF-8"?>
<svg version="1.1" xmlns="http://www.w3.org/2000/svg" width="311" height="365">
<path d="M0 0 C3.16287155 0.93834241 6.32456672 1.88059199 9.48608398 2.82348633 C10.37109337 3.08599434 11.25610275 3.34850235 12.1679306 3.61896515 C20.23809822 6.02940213 28.16213607 8.77196436 36.0625 11.6875 C36.75734497 11.94223083 37.45218994 12.19696167 38.16809082 12.45941162 C104.49857368 36.7988895 104.49857368 36.7988895 112.4375 50.875 C116.62147709 61.17099269 116.27561913 71.83352822 116.22705078 82.75048828 C116.22648586 84.53519179 116.22680481 86.31989576 116.22793579 88.104599 C116.22850714 92.9241423 116.21678829 97.74358506 116.20278788 102.56310511 C116.19024401 107.6092747 116.18910714 112.65544686 116.18673706 117.70162964 C116.18053301 127.24592191 116.16413679 136.79016809 116.14403808 146.33444011 C116.12164556 157.20507541 116.11067723 168.07571296 116.10064721 178.94636559 C116.07976958 201.29760256 116.04461457 223.64879869 116 246 C115.01 246 114.02 246 113 246 C113 245.01 113 244.02 113 243 C112.32727051 242.89494141 111.65454102 242.78988281 110.96142578 242.68164062 C107.34905437 241.85016981 104.02906794 240.5106674 100.6171875 239.09375 C99.57306198 238.66660706 99.57306198 238.66660706 98.50784302 238.23083496 C96.29515085 237.32474129 94.08501115 236.41261084 91.875 235.5 C89.65736519 234.58861029 87.43922235 233.67847413 85.22073364 232.76916504 C83.84339718 232.20415516 82.46664371 231.63772154 81.09054565 231.06970215 C78.41099438 229.96677704 75.75014603 228.91671534 73 228 C71.77150557 212.65198785 70.7897347 197.33856797 70.6875 181.9375 C70.67009766 180.71458252 70.65269531 179.49166504 70.63476562 178.23168945 C70.63573242 176.52178833 70.63573242 176.52178833 70.63671875 174.77734375 C70.63373779 173.77952881 70.63075684 172.78171387 70.62768555 171.75366211 C71.19965094 167.52336859 72.92287757 164.885122 76.19140625 162.19921875 C76.97386719 161.70035156 77.75632812 161.20148438 78.5625 160.6875 C79.34753906 160.17574219 80.13257812 159.66398438 80.94140625 159.13671875 C83 158 83 158 85 158 C92.85838175 143.4922183 91.2012161 128.14132108 90.1875 112.1875 C90.14498108 111.50300781 90.10246216 110.81851563 90.05865479 110.11328125 C89.31809953 98.29171138 88.2500523 86.52157362 86.96557617 74.74682617 C86.32456351 68.78973675 85.83685048 62.99203678 86 57 C85.01 57.495 85.01 57.495 84 58 C83.99191315 58.76563766 83.98382629 59.53127533 83.97549438 60.32011414 C83.89747292 67.54433234 83.81015968 74.76835077 83.71247292 81.99232769 C83.66258017 85.70602895 83.61624976 89.41970273 83.578125 93.13354492 C83.54118313 96.71928456 83.49479951 100.30479034 83.44193649 103.89032936 C83.42343971 105.25657857 83.4083144 106.62287782 83.39665604 107.9892025 C83.37971343 109.90655783 83.34954601 111.82378237 83.31884766 113.7409668 C83.30552399 114.83128708 83.29220032 115.92160736 83.2784729 117.04496765 C82.99165337 120.08857073 82.39787582 122.28737266 81 125 C78.875 125.8125 78.875 125.8125 77 126 C74.6668272 122.50024079 74.67968763 120.86176064 74.51342773 116.70849609 C74.45674423 115.4106015 74.40006073 114.11270691 74.34165955 112.77548218 C74.28891534 111.35813602 74.2362281 109.94078774 74.18359375 108.5234375 C74.12253434 107.07276459 74.06051467 105.62213181 73.99757385 104.17153931 C73.83393174 100.35490844 73.68061952 96.53793942 73.53027344 92.72076416 C73.28833465 86.60337387 73.03410281 80.48651497 72.77354622 74.36989212 C72.68434453 72.22895709 72.60157164 70.08783945 72.51939392 67.94662476 C72.46586258 66.65503448 72.41233124 65.36344421 72.35717773 64.03271484 C72.31213608 62.88926605 72.26709442 61.74581726 72.22068787 60.56771851 C72.28354063 58.06888764 72.28354063 58.06888764 71 57 C70.34480099 66.88167728 69.91809103 76.74123712 69.7890625 86.64453125 C69.7747821 87.63790497 69.76050171 88.63127869 69.74578857 89.65475464 C69.68813252 93.75588169 69.63301006 97.85685551 69.59863281 101.95825195 C69.57110924 104.99984362 69.52534716 108.04071631 69.4765625 111.08203125 C69.47330963 112.00595169 69.47005676 112.92987213 69.46670532 113.88179016 C69.37322291 118.74864381 69.11829437 122.01229078 66 126 C64.35 125.34 62.7 124.68 61 124 C60.73737104 116.59324044 60.47646528 109.18642222 60.21769714 101.77952671 C60.09745952 98.33939739 59.97665128 94.89929018 59.85449219 91.45922852 C59.71374606 87.49501503 59.575566 83.53071401 59.4375 79.56640625 C59.39375244 78.34417862 59.35000488 77.12195099 59.30493164 75.86268616 C59.08782719 69.57034283 58.95286052 63.2960667 59 57 C58.34 57 57.68 57 57 57 C56.97716446 57.59087402 56.95432892 58.18174805 56.93080139 58.79052734 C56.68961428 65.02157424 56.44575335 71.25251268 56.20043945 77.48339844 C56.10960448 79.79912763 56.01941851 82.11488238 55.92993164 84.43066406 C55.67644078 90.98460652 55.40985276 97.5377459 55.12335205 104.09033203 C55.01032009 106.75656635 54.91210649 109.42296208 54.81591797 112.08984375 C54.75200227 113.5391081 54.68714719 114.98833151 54.62109375 116.4375 C54.57267334 117.65308594 54.52425293 118.86867188 54.47436523 120.12109375 C53.96879042 123.18940987 53.4535245 124.17000278 51 126 C49.68 125.34 48.36 124.68 47 124 C46.67 101.89 46.34 79.78 46 57 C45.34 57 44.68 57 44 57 C40.72047105 93.81969587 40.72047105 93.81969587 39.5 130.75 C39.49000977 131.53256165 39.48001953 132.31512329 39.46972656 133.12139893 C39.3826446 141.3216899 39.4682035 147.92342546 44 155 C44.33 155.99 44.66 156.98 45 158 C46.83814998 159.0757558 46.83814998 159.0757558 49 160 C53.07811524 162.48534193 56.33347795 164.66695589 58.5 169 C60.50451453 179.62421628 58.86540164 191.42785395 58.125 202.125 C58.04636719 203.41148437 57.96773437 204.69796875 57.88671875 206.0234375 C57.80292969 207.25578125 57.71914062 208.488125 57.6328125 209.7578125 C57.55949707 210.8627002 57.48618164 211.96758789 57.41064453 213.10595703 C57.015387 215.89155919 56.30831632 217.55732054 55 220 C48.87323278 217.70703088 42.75445258 215.39365469 36.640625 213.06640625 C34.56295327 212.27823476 32.48354293 211.49462972 30.40234375 210.71582031 C27.39887442 209.59095776 24.40218832 208.44943399 21.40625 207.3046875 C20.02451599 206.7933577 20.02451599 206.7933577 18.61486816 206.271698 C10.84794567 203.27278022 3.79674011 199.73970347 0 192 C-0.27687107 189.28953757 -0.39304464 186.81559402 -0.36076355 184.10966492 C-0.36332682 183.32135074 -0.3658901 182.53303656 -0.36853105 181.72083408 C-0.37346731 179.08280479 -0.35697882 176.44534949 -0.34057617 173.80737305 C-0.33972986 171.91503411 -0.34020511 170.0226942 -0.34190369 168.13035583 C-0.34276492 162.99436584 -0.32511829 157.85858575 -0.30418181 152.72264457 C-0.28543647 147.35480547 -0.28366626 141.98696163 -0.28010559 136.61909485 C-0.27077884 126.4548323 -0.24615648 116.29066648 -0.21605712 106.12644655 C-0.18253276 94.55461758 -0.16603204 82.98278402 -0.15097082 71.41091859 C-0.11960752 47.60722542 -0.06683472 23.80361813 0 0 Z " fill="#0FC5C5" transform="translate(35,70)"/>
<path d="M0 0 C0 62.37 0 124.74 0 189 C-0.66 189 -1.32 189 -2 189 C-2.0825 189.721875 -2.165 190.44375 -2.25 191.1875 C-3.83154539 197.1182952 -7.95474443 199.92949666 -13 203 C-15.78540179 204.27719509 -18.63122305 205.3540956 -21.50390625 206.41796875 C-22.30481186 206.72068192 -23.10571747 207.02339508 -23.93089294 207.33528137 C-25.61460359 207.9698796 -27.29969701 208.60081995 -28.98608398 209.22827148 C-31.56117553 210.18700688 -34.13140134 211.15796334 -36.70117188 212.13085938 C-38.34347826 212.74811931 -39.98604771 213.36467989 -41.62890625 213.98046875 C-42.77595787 214.41325386 -42.77595787 214.41325386 -43.94618225 214.8547821 C-47.61166767 216.21368241 -51.11966925 217.38898089 -55 218 C-56.53470346 204.7905881 -57.27526568 191.60068606 -57.40942383 178.30773926 C-57.42809762 176.68969604 -57.45540177 175.07172877 -57.49145508 173.45397949 C-57.53942052 171.15364664 -57.55353615 168.85546722 -57.55859375 166.5546875 C-57.58777138 165.5215593 -57.58777138 165.5215593 -57.61753845 164.46755981 C-57.58182893 160.61578853 -57.10344157 159.12318817 -54.59179688 156.13208008 C-53.73650391 155.42849365 -52.88121094 154.72490723 -52 154 C-51.33097656 153.44957031 -50.66195312 152.89914063 -49.97265625 152.33203125 C-49.34230469 151.83058594 -48.71195312 151.32914063 -48.0625 150.8125 C-38.89699657 142.75169002 -34.83380449 131.40982361 -33.77246094 119.43212891 C-32.71269895 100.83297269 -35.30606231 82.45558565 -47.375 67.5 C-51.975293 62.65758632 -56.75737145 59.87072872 -63.5 59.5 C-70.13608885 59.86487086 -74.96135163 62.60887617 -79.5625 67.3125 C-91.14542749 81.54598298 -94.8217751 100.80570276 -93.78515625 118.7109375 C-92.12364893 133.04737207 -86.79758188 144.21793526 -75.75 153.4375 C-71.84840975 156.87043076 -69.68362319 159.23254516 -69.15893555 164.46875 C-68.52677229 174.53675101 -69.21581342 184.62754034 -69.79956055 194.68188477 C-69.93745958 197.06180234 -70.06970928 199.44198471 -70.20117188 201.82226562 C-70.6548272 209.89821322 -71.19652408 217.9498768 -72 226 C-77.80035496 228.42600136 -83.60297554 230.8465186 -89.40722656 233.26318359 C-91.38269174 234.08645659 -93.3576291 234.91099728 -95.33203125 235.73681641 C-98.16529703 236.92161078 -101.00041163 238.10187672 -103.8359375 239.28125 C-105.16569107 239.83903137 -105.16569107 239.83903137 -106.52230835 240.40808105 C-107.34300812 240.74843384 -108.16370789 241.08878662 -109.00927734 241.43945312 C-110.0951564 241.89245789 -110.0951564 241.89245789 -111.20297241 242.35461426 C-113 243 -113 243 -115 243 C-115 243.99 -115 244.98 -115 246 C-115.99 246 -116.98 246 -118 246 C-118.14034308 221.82556447 -118.24605585 197.65119026 -118.31087303 173.47642899 C-118.34177266 162.25091154 -118.38387881 151.02564764 -118.45263672 139.80029297 C-118.51255784 130.01293505 -118.55117743 120.22576082 -118.56453097 110.43822455 C-118.5723332 105.2587177 -118.59058888 100.07973624 -118.63438034 94.90039825 C-118.67532231 90.01819193 -118.68762565 85.13672381 -118.67864609 80.25436211 C-118.68028712 78.46942307 -118.69209303 76.68445753 -118.71523285 74.89966774 C-118.85882321 63.24580055 -117.95145894 53.95682905 -110.01071739 44.67467117 C-103.66188543 38.19468965 -95.14874367 34.6631524 -87 31 C-86.14422363 30.61005859 -85.28844727 30.22011719 -84.40673828 29.81835938 C-69.66949684 23.16367613 -54.59572628 17.55734738 -39.375 12.125 C-38.48339172 11.80634979 -37.59178345 11.48769958 -36.67315674 11.15939331 C-27.79550861 7.99569521 -18.89884184 4.90197764 -9.9140625 2.0546875 C-8.92459122 1.73795578 -8.92459122 1.73795578 -7.91513062 1.41482544 C-5.14809904 0.55458052 -2.91924786 0 0 0 Z " fill="#0FC4C4" transform="translate(277,70)"/>
<path d="M0 0 C3.16287155 0.93834241 6.32456672 1.88059199 9.48608398 2.82348633 C10.37109337 3.08599434 11.25610275 3.34850235 12.1679306 3.61896515 C20.23809822 6.02940213 28.16213607 8.77196436 36.0625 11.6875 C36.75734497 11.94223083 37.45218994 12.19696167 38.16809082 12.45941162 C104.49857368 36.7988895 104.49857368 36.7988895 112.4375 50.875 C116.62147709 61.17099269 116.27561913 71.83352822 116.22705078 82.75048828 C116.22648586 84.53519179 116.22680481 86.31989576 116.22793579 88.104599 C116.22850714 92.9241423 116.21678829 97.74358506 116.20278788 102.56310511 C116.19024401 107.6092747 116.18910714 112.65544686 116.18673706 117.70162964 C116.18053301 127.24592191 116.16413679 136.79016809 116.14403808 146.33444011 C116.12164556 157.20507541 116.11067723 168.07571296 116.10064721 178.94636559 C116.07976958 201.29760256 116.04461457 223.64879869 116 246 C115.01 246 114.02 246 113 246 C113 245.01 113 244.02 113 243 C112.32727051 242.89494141 111.65454102 242.78988281 110.96142578 242.68164062 C107.34905437 241.85016981 104.02906794 240.5106674 100.6171875 239.09375 C99.57306198 238.66660706 99.57306198 238.66660706 98.50784302 238.23083496 C96.29515085 237.32474129 94.08501115 236.41261084 91.875 235.5 C89.65736519 234.58861029 87.43922235 233.67847413 85.22073364 232.76916504 C83.84339718 232.20415516 82.46664371 231.63772154 81.09054565 231.06970215 C78.41099438 229.96677704 75.75014603 228.91671534 73 228 C71.77150557 212.65198785 70.7897347 197.33856797 70.6875 181.9375 C70.67009766 180.71458252 70.65269531 179.49166504 70.63476562 178.23168945 C70.63573242 176.52178833 70.63573242 176.52178833 70.63671875 174.77734375 C70.63373779 173.77952881 70.63075684 172.78171387 70.62768555 171.75366211 C71.19965094 167.52336859 72.92287757 164.885122 76.19140625 162.19921875 C76.97386719 161.70035156 77.75632812 161.20148438 78.5625 160.6875 C79.34753906 160.17574219 80.13257812 159.66398438 80.94140625 159.13671875 C83 158 83 158 85 158 C92.85838175 143.4922183 91.2012161 128.14132108 90.1875 112.1875 C90.14498108 111.50300781 90.10246216 110.81851563 90.05865479 110.11328125 C89.31809953 98.29171138 88.2500523 86.52157362 86.96557617 74.74682617 C86.32456351 68.78973675 85.83685048 62.99203678 86 57 C85.01 57.495 85.01 57.495 84 58 C83.99191315 58.76563766 83.98382629 59.53127533 83.97549438 60.32011414 C83.89747292 67.54433234 83.81015968 74.76835077 83.71247292 81.99232769 C83.66258017 85.70602895 83.61624976 89.41970273 83.578125 93.13354492 C83.54118313 96.71928456 83.49479951 100.30479034 83.44193649 103.89032936 C83.42343971 105.25657857 83.4083144 106.62287782 83.39665604 107.9892025 C83.37971343 109.90655783 83.34954601 111.82378237 83.31884766 113.7409668 C83.30552399 114.83128708 83.29220032 115.92160736 83.2784729 117.04496765 C82.99165337 120.08857073 82.39787582 122.28737266 81 125 C78.875 125.8125 78.875 125.8125 77 126 C74.6668272 122.50024079 74.67968763 120.86176064 74.51342773 116.70849609 C74.45674423 115.4106015 74.40006073 114.11270691 74.34165955 112.77548218 C74.28891534 111.35813602 74.2362281 109.94078774 74.18359375 108.5234375 C74.12253434 107.07276459 74.06051467 105.62213181 73.99757385 104.17153931 C73.83393174 100.35490844 73.68061952 96.53793942 73.53027344 92.72076416 C73.28833465 86.60337387 73.03410281 80.48651497 72.77354622 74.36989212 C72.68434453 72.22895709 72.60157164 70.08783945 72.51939392 67.94662476 C72.46586258 66.65503448 72.41233124 65.36344421 72.35717773 64.03271484 C72.31213608 62.88926605 72.26709442 61.74581726 72.22068787 60.56771851 C72.28354063 58.06888764 72.28354063 58.06888764 71 57 C70.34480099 66.88167728 69.91809103 76.74123712 69.7890625 86.64453125 C69.7747821 87.63790497 69.76050171 88.63127869 69.74578857 89.65475464 C69.68813252 93.75588169 69.63301006 97.85685551 69.59863281 101.95825195 C69.57110924 104.99984362 69.52534716 108.04071631 69.4765625 111.08203125 C69.47330963 112.00595169 69.47005676 112.92987213 69.46670532 113.88179016 C69.37322291 118.74864381 69.11829437 122.01229078 66 126 C64.35 125.34 62.7 124.68 61 124 C60.73737104 116.59324044 60.47646528 109.18642222 60.21769714 101.77952671 C60.09745952 98.33939739 59.97665128 94.89929018 59.85449219 91.45922852 C59.71374606 87.49501503 59.575566 83.53071401 59.4375 79.56640625 C59.39375244 78.34417862 59.35000488 77.12195099 59.30493164 75.86268616 C59.08782719 69.57034283 58.95286052 63.2960667 59 57 C58.34 57 57.68 57 57 57 C56.97716446 57.59087402 56.95432892 58.18174805 56.93080139 58.79052734 C56.68961428 65.02157424 56.44575335 71.25251268 56.20043945 77.48339844 C56.10960448 79.79912763 56.01941851 82.11488238 55.92993164 84.43066406 C55.67644078 90.98460652 55.40985276 97.5377459 55.12335205 104.09033203 C55.01032009 106.75656635 54.91210649 109.42296208 54.81591797 112.08984375 C54.75200227 113.5391081 54.68714719 114.98833151 54.62109375 116.4375 C54.57267334 117.65308594 54.52425293 118.86867188 54.47436523 120.12109375 C53.96879042 123.18940987 53.4535245 124.17000278 51 126 C49.68 125.34 48.36 124.68 47 124 C46.67 101.89 46.34 79.78 46 57 C45.34 57 44.68 57 44 57 C40.72047105 93.81969587 40.72047105 93.81969587 39.5 130.75 C39.49000977 131.53256165 39.48001953 132.31512329 39.46972656 133.12139893 C39.3826446 141.3216899 39.4682035 147.92342546 44 155 C44.33 155.99 44.66 156.98 45 158 C46.83814998 159.0757558 46.83814998 159.0757558 49 160 C53.07811524 162.48534193 56.33347795 164.66695589 58.5 169 C60.50451453 179.62421628 58.86540164 191.42785395 58.125 202.125 C58.04636719 203.41148437 57.96773437 204.69796875 57.88671875 206.0234375 C57.80292969 207.25578125 57.71914062 208.488125 57.6328125 209.7578125 C57.55949707 210.8627002 57.48618164 211.96758789 57.41064453 213.10595703 C57.015387 215.89155919 56.30831632 217.55732054 55 220 C48.87323278 217.70703088 42.75445258 215.39365469 36.640625 213.06640625 C34.56295327 212.27823476 32.48354293 211.49462972 30.40234375 210.71582031 C27.39887442 209.59095776 24.40218832 208.44943399 21.40625 207.3046875 C20.02451599 206.7933577 20.02451599 206.7933577 18.61486816 206.271698 C10.84794567 203.27278022 3.79674011 199.73970347 0 192 C-0.27687107 189.28953757 -0.39304464 186.81559402 -0.36076355 184.10966492 C-0.36332682 183.32135074 -0.3658901 182.53303656 -0.36853105 181.72083408 C-0.37346731 179.08280479 -0.35697882 176.44534949 -0.34057617 173.80737305 C-0.33972986 171.91503411 -0.34020511 170.0226942 -0.34190369 168.13035583 C-0.34276492 162.99436584 -0.32511829 157.85858575 -0.30418181 152.72264457 C-0.28543647 147.35480547 -0.28366626 141.98696163 -0.28010559 136.61909485 C-0.27077884 126.4548323 -0.24615648 116.29066648 -0.21605712 106.12644655 C-0.18253276 94.55461758 -0.16603204 82.98278402 -0.15097082 71.41091859 C-0.11960752 47.60722542 -0.06683472 23.80361813 0 0 Z M1 2 C0.92995224 26.42578083 0.87703257 50.85154664 0.84456348 75.27740765 C0.82908754 86.61848493 0.80798408 97.95949985 0.77368164 109.30053711 C0.74380161 119.18414581 0.72443029 129.06770934 0.71773452 138.95136195 C0.7138199 144.18580357 0.70460482 149.42011597 0.68280983 154.65451622 C0.66246679 159.58005575 0.6561618 164.50541267 0.66067696 169.43099022 C0.65985078 171.23980196 0.65387217 173.04861973 0.64238358 174.85739517 C0.62747352 177.32566196 0.63104079 179.79323785 0.63923645 182.26152039 C0.63049793 182.97845446 0.6217594 183.69538853 0.61275607 184.43404788 C0.66055628 189.75439111 2.16045502 192.69729926 5.40795898 196.76245117 C12.28489537 203.39934068 21.27620563 206.05563922 30.0625 209.3125 C31.70174687 209.93664296 33.34042444 210.56228328 34.97851562 211.18945312 C41.60126835 213.70654275 48.15927219 216.1382156 55 218 C56.275245 205.45274239 57.22578106 192.92802865 57.375 180.3125 C57.41367188 178.72900757 57.41367188 178.72900757 57.453125 177.11352539 C57.47428448 171.26849289 57.47428448 171.26849289 55.25390625 165.9609375 C53.09727549 164.08463136 51.06261364 162.68604597 48.5625 161.3125 C42.83677366 157.68086138 40.36237246 152.56762985 38.45800781 146.18286133 C35.03972067 129.89133398 38.14778011 110.24090829 39.375 93.75 C39.43812378 92.89298492 39.50124756 92.03596985 39.56628418 91.15298462 C40.42049421 79.72963551 41.57060087 68.36546629 43 57 C44.32 57 45.64 57 47 57 C47.33 78.78 47.66 100.56 48 123 C49.32 123 50.64 123 52 123 C52.87184499 116.79309941 53.26538479 110.655458 53.5 104.39453125 C53.5609082 102.89293709 53.5609082 102.89293709 53.62304688 101.36100769 C53.75187491 98.17828931 53.87634443 94.99542323 54 91.8125 C55.02449927 65.66175602 55.02449927 65.66175602 56 55 C57.32 55 58.64 55 60 55 C60.02283554 55.7044223 60.04567108 56.4088446 60.06919861 57.13461304 C60.28628471 63.81274225 60.50661873 70.49075576 60.73049068 77.16866112 C60.84543996 80.60082989 60.95918648 84.03302926 61.07006836 87.46533203 C61.19795573 91.42232688 61.33128307 95.37912993 61.46484375 99.3359375 C61.50343002 100.55300385 61.5420163 101.77007019 61.58177185 103.02401733 C61.81235583 109.71923239 62.22061047 116.34529942 63 123 C64.32 123 65.64 123 67 123 C67.02283554 122.23436234 67.04567108 121.46872467 67.06919861 120.67988586 C67.28541479 113.45568038 67.50568802 106.23161529 67.73049068 99.00767231 C67.84591448 95.2939967 67.95978283 91.58028712 68.07006836 87.86645508 C68.17660711 84.28073957 68.28726837 80.69517262 68.40075874 77.10967064 C68.44328451 75.74342504 68.48433822 74.37713278 68.5238781 73.0107975 C68.57961879 71.09342455 68.64113393 69.17622213 68.70288086 67.2590332 C68.75284462 65.62355278 68.75284462 65.62355278 68.80381775 63.95503235 C68.98569178 61.21552027 69.38972895 58.67317329 70 56 C70.99 56 71.98 56 73 56 C74.14416808 62.56606567 74.281593 69.10475651 74.46484375 75.7578125 C74.54331783 78.26433239 74.62210323 80.77084255 74.70117188 83.27734375 C74.82106735 87.21198323 74.93811332 91.14665468 75.04956055 95.08154297 C75.15907614 98.89059519 75.27992681 102.69915612 75.40234375 106.5078125 C75.43263168 107.68497833 75.46291962 108.86214417 75.49412537 110.07498169 C75.53078812 111.1731723 75.56745087 112.27136292 75.60522461 113.40283203 C75.63329697 114.36544952 75.66136932 115.32806702 75.69029236 116.31985474 C76.0200799 119.17376722 76.81760946 121.39333562 78 124 C78.99 123.67 79.98 123.34 81 123 C81.33 100.89 81.66 78.78 82 56 C83.32 56 84.64 56 86 56 C87.50036987 65.85629067 88.63732988 75.69777775 89.5625 85.625 C89.68916877 86.95315215 89.81612136 88.28127726 89.94335938 89.609375 C90.30373089 93.40553989 90.65236085 97.20265165 91 101 C91.10078857 102.02810791 91.20157715 103.05621582 91.30541992 104.11547852 C92.03776712 111.97722902 92.18340391 119.79434211 92.1875 127.6875 C92.19974609 128.94111328 92.21199219 130.19472656 92.22460938 131.48632812 C92.24024626 141.39490247 92.02807839 151.32566153 85 159 C82.47861933 160.79077588 79.93099463 162.31140018 77.20703125 163.7734375 C74.88552256 164.93142635 74.88552256 164.93142635 73 167 C70.0491652 179.98367311 72.25707146 194.68427884 73 207.875 C73.09670131 209.64190812 73.19305767 211.40883515 73.2890625 213.17578125 C73.52207595 217.45074873 73.75971948 221.72543507 74 226 C80.46598353 228.88461115 86.94206368 231.74480158 93.4375 234.5625 C94.75331055 235.14161133 94.75331055 235.14161133 96.09570312 235.73242188 C96.97033203 236.11076172 97.84496094 236.48910156 98.74609375 236.87890625 C99.51622803 237.2147876 100.2863623 237.55066895 101.07983398 237.89672852 C103.76237356 238.91022206 106.43486995 239.75276204 109.18251038 240.56895447 C110.08428544 240.83743667 110.9860605 241.10591887 111.91516209 241.38253689 C112.6031586 241.58629972 113.29115511 241.79006254 114 242 C114.07012386 218.5559897 114.12300476 195.11199515 114.15543652 171.66790104 C114.17089631 160.78206435 114.19196892 149.89629287 114.22631836 139.01049805 C114.25624782 129.52091869 114.27558145 120.03138658 114.28226548 110.54176134 C114.28617172 105.51845891 114.29533353 100.49529161 114.31719017 95.47203255 C114.33761131 90.74018169 114.34382242 86.00852114 114.33932304 81.2766304 C114.34014573 79.54367602 114.34607776 77.81071501 114.35761642 76.07779884 C114.42825004 64.91878096 114.29784126 54.95505615 106.875 45.890625 C88.5858163 27.44903144 54.09498355 19.12683558 30 11 C29.13294434 10.70464355 28.26588867 10.40928711 27.37255859 10.10498047 C24.5625228 9.14836211 21.7504952 8.19787839 18.9375 7.25 C18.06834961 6.95585205 17.19919922 6.6617041 16.30371094 6.35864258 C15.47000977 6.08044678 14.63630859 5.80225098 13.77734375 5.515625 C13.04765381 5.27102539 12.31796387 5.02642578 11.56616211 4.77441406 C9.33228479 4.1002766 7.10366775 3.51271548 4.83961487 2.95159912 C2.93900551 2.48055756 2.93900551 2.48055756 1 2 Z " fill="#0E1414" transform="translate(35,70)"/>
<path d="M0 0 C0.42605951 5.35617674 0.42605951 5.35617674 -1.40625 8.125 C-8.4335889 14.41813931 -16.21221325 17.11931694 -25 20 C-49.50140653 28.10282736 -75.37833662 37.46596798 -94 56 C-94.8944862 53.53594369 -95.09724895 52.30290655 -94.28515625 49.7734375 C-90.91763243 43.16749621 -86.88152427 37.57346849 -82 32 C-81.49082031 31.40703125 -80.98164063 30.8140625 -80.45703125 30.203125 C-64.70270613 13.19331381 -23.05838909 -13.17622234 0 0 Z " fill="#E1E5E5" transform="translate(252,53)"/>
<path d="M0 0 C23.15340293 0.21155394 48.18081395 18.05315665 64.4375 33.3125 C70.38484145 39.43476326 80.1875 50.69057009 80.1875 59.5625 C77.23235712 58.22978851 75.19065704 56.75177685 72.875 54.5 C56.28858657 39.79702545 33.71874834 31.67867529 12.96044922 24.96118164 C4.27658015 22.11924194 -2.18501451 19.88322608 -6.97265625 11.73046875 C-8.40770359 8.02604423 -7.74854246 5.37353 -6.8125 1.5625 C-4.98970156 -0.26029844 -2.47284101 0.13530096 0 0 Z " fill="#BBBEBE" transform="translate(72.8125,49.4375)"/>
<path d="M0 0 C0 62.37 0 124.74 0 189 C-0.66 189 -1.32 189 -2 189 C-2.0825 189.721875 -2.165 190.44375 -2.25 191.1875 C-3.83154539 197.1182952 -7.95474443 199.92949666 -13 203 C-15.78540179 204.27719509 -18.63122305 205.3540956 -21.50390625 206.41796875 C-22.30481186 206.72068192 -23.10571747 207.02339508 -23.93089294 207.33528137 C-25.61460359 207.9698796 -27.29969701 208.60081995 -28.98608398 209.22827148 C-31.56117553 210.18700688 -34.13140134 211.15796334 -36.70117188 212.13085938 C-38.34347826 212.74811931 -39.98604771 213.36467989 -41.62890625 213.98046875 C-42.77595787 214.41325386 -42.77595787 214.41325386 -43.94618225 214.8547821 C-47.61166767 216.21368241 -51.11966925 217.38898089 -55 218 C-56.53470346 204.7905881 -57.27526568 191.60068606 -57.40942383 178.30773926 C-57.42809762 176.68969604 -57.45540177 175.07172877 -57.49145508 173.45397949 C-57.53942052 171.15364664 -57.55353615 168.85546722 -57.55859375 166.5546875 C-57.58777138 165.5215593 -57.58777138 165.5215593 -57.61753845 164.46755981 C-57.58182893 160.61578853 -57.10344157 159.12318817 -54.59179688 156.13208008 C-53.73650391 155.42849365 -52.88121094 154.72490723 -52 154 C-51.33097656 153.44957031 -50.66195312 152.89914063 -49.97265625 152.33203125 C-49.34230469 151.83058594 -48.71195312 151.32914063 -48.0625 150.8125 C-38.89699657 142.75169002 -34.83380449 131.40982361 -33.77246094 119.43212891 C-32.71269895 100.83297269 -35.30606231 82.45558565 -47.375 67.5 C-51.975293 62.65758632 -56.75737145 59.87072872 -63.5 59.5 C-70.13608885 59.86487086 -74.96135163 62.60887617 -79.5625 67.3125 C-91.14542749 81.54598298 -94.8217751 100.80570276 -93.78515625 118.7109375 C-92.12364893 133.04737207 -86.79758188 144.21793526 -75.75 153.4375 C-71.84840975 156.87043076 -69.68362319 159.23254516 -69.15893555 164.46875 C-68.52677229 174.53675101 -69.21581342 184.62754034 -69.79956055 194.68188477 C-69.93745958 197.06180234 -70.06970928 199.44198471 -70.20117188 201.82226562 C-70.6548272 209.89821322 -71.19652408 217.9498768 -72 226 C-77.80035496 228.42600136 -83.60297554 230.8465186 -89.40722656 233.26318359 C-91.38269174 234.08645659 -93.3576291 234.91099728 -95.33203125 235.73681641 C-98.16529703 236.92161078 -101.00041163 238.10187672 -103.8359375 239.28125 C-105.16569107 239.83903137 -105.16569107 239.83903137 -106.52230835 240.40808105 C-107.34300812 240.74843384 -108.16370789 241.08878662 -109.00927734 241.43945312 C-110.0951564 241.89245789 -110.0951564 241.89245789 -111.20297241 242.35461426 C-113 243 -113 243 -115 243 C-115 243.99 -115 244.98 -115 246 C-115.99 246 -116.98 246 -118 246 C-118.14034308 221.82556447 -118.24605585 197.65119026 -118.31087303 173.47642899 C-118.34177266 162.25091154 -118.38387881 151.02564764 -118.45263672 139.80029297 C-118.51255784 130.01293505 -118.55117743 120.22576082 -118.56453097 110.43822455 C-118.5723332 105.2587177 -118.59058888 100.07973624 -118.63438034 94.90039825 C-118.67532231 90.01819193 -118.68762565 85.13672381 -118.67864609 80.25436211 C-118.68028712 78.46942307 -118.69209303 76.68445753 -118.71523285 74.89966774 C-118.85881806 63.24621855 -117.98390273 53.86177166 -109.94235802 44.64049149 C-104.18376596 38.85037393 -96.55527864 34.95990332 -89 32 C-88.34 32.33 -87.68 32.66 -87 33 C-87.99 33.49628906 -88.98 33.99257812 -90 34.50390625 C-100.750726 39.99088732 -110.34140243 45.18355723 -115 57 C-115.93473185 61.55051847 -116.12350833 65.87711432 -116.12025452 70.51705933 C-116.12110894 71.25314175 -116.12196337 71.98922417 -116.12284368 72.74761212 C-116.12448474 75.20269753 -116.1189997 77.6577139 -116.11352539 80.11279297 C-116.1132432 81.87720234 -116.11340188 83.64161182 -116.1139679 85.40602112 C-116.11425461 90.18858145 -116.10837817 94.97111667 -116.10139394 99.75367117 C-116.0951395 104.75449083 -116.09455494 109.75531107 -116.09336853 114.75613403 C-116.09026139 124.22262782 -116.0820563 133.68911006 -116.07201904 143.15559876 C-116.06083877 153.93424951 -116.05534262 164.71290082 -116.05032361 175.49155593 C-116.03987318 197.66104374 -116.02228566 219.83052114 -116 242 C-115.35759369 241.71769028 -114.71518738 241.43538055 -114.05331421 241.14451599 C-111.08617692 239.84239207 -108.11732291 238.54422665 -105.1484375 237.24609375 C-104.13837646 236.80213257 -103.12831543 236.35817139 -102.08764648 235.90075684 C-94.92178023 232.77197809 -87.70453506 229.86165985 -80.33349609 227.25085449 C-78.52335323 226.58227623 -76.75546457 225.80122293 -75 225 C-73.89654889 221.68964667 -73.69263177 218.88598181 -73.46484375 215.40234375 C-73.42168533 214.74393997 -73.37852692 214.08553619 -73.33406067 213.40718079 C-73.19581056 211.25094872 -73.06553506 209.09436171 -72.9375 206.9375 C-72.89330933 206.20390259 -72.84911865 205.47030518 -72.80358887 204.71447754 C-72.20226105 194.55939491 -71.79187737 184.42473219 -71.75 174.25 C-71.740896 173.18128662 -71.73179199 172.11257324 -71.72241211 171.01147461 C-71.72635986 170.02284424 -71.73030762 169.03421387 -71.734375 168.015625 C-71.73663086 167.16258789 -71.73888672 166.30955078 -71.74121094 165.43066406 C-72.38456331 159.38800728 -75.3351722 156.49311879 -79.8125 152.75 C-84.84011786 148.34348025 -88.3892968 144.24951519 -91 138 C-91.43699219 137.00033203 -91.43699219 137.00033203 -91.8828125 135.98046875 C-98.39540497 119.9519038 -97.66930635 102.11861609 -92 86 C-91.62617188 84.91976562 -91.25234375 83.83953125 -90.8671875 82.7265625 C-86.61200435 71.53909422 -80.03538279 63.31166881 -69.4375 57.625 C-62.95377383 55.96250611 -58.302125 57.14641223 -52.5546875 60.2734375 C-40.51568239 68.40989049 -34.83305882 82.19412382 -32 96 C-29.2208115 112.26642684 -30.83397433 130.35957781 -39.6015625 144.6015625 C-42.93896639 149.15810936 -46.5386585 152.48433272 -51.30078125 155.515625 C-54.08380615 157.94677319 -54.85804329 160.40189724 -55.18286133 164.05859375 C-55.27393369 166.6677229 -55.27523867 169.26437558 -55.25 171.875 C-55.24419922 173.34175171 -55.24419922 173.34175171 -55.23828125 174.83813477 C-55.08528447 188.58128304 -54.01401432 202.29867082 -53 216 C-48.48098889 214.24627933 -43.96453449 212.48617121 -39.45019531 210.72045898 C-37.91863213 210.12240318 -36.38641989 209.52600649 -34.85351562 208.93139648 C-16.9453745 203.25901893 -16.9453745 203.25901893 -4 191 C-3.19142348 185.70330014 -2.84947877 180.52527282 -2.84178162 175.16650391 C-2.83684364 174.42054553 -2.83190566 173.67458715 -2.82681805 172.90602398 C-2.8115731 170.42953887 -2.80311808 167.95307941 -2.79467773 165.4765625 C-2.78508896 163.69215168 -2.7750783 161.90774308 -2.76467896 160.12333679 C-2.73773209 155.29546639 -2.71666744 150.46758631 -2.69667697 145.63968277 C-2.67475412 140.58813989 -2.64739634 135.53662649 -2.62062073 130.48510742 C-2.57077881 120.92662042 -2.52580856 111.368117 -2.48259836 101.80959797 C-2.43315319 90.92447311 -2.37826213 80.03937783 -2.32291877 69.15428162 C-2.20922927 46.7695487 -2.10236203 24.38478738 -2 2 C-6.89026193 3.61338954 -11.77909542 5.23101781 -16.66674805 6.85229492 C-18.32360473 7.40126409 -19.98082137 7.94914828 -21.63842773 8.49584961 C-24.04510757 9.28982835 -26.4506073 10.0872501 -28.85546875 10.88671875 C-30.03301224 11.27728958 -30.03301224 11.27728958 -31.23434448 11.67575073 C-37.06824845 13.63264346 -42.75773064 15.82908372 -48.42700195 18.22583008 C-51.14543388 19.0437585 -52.38348079 18.99439333 -55 18 C-50.16771321 16.23545738 -45.33365365 14.47588301 -40.49804688 12.72045898 C-38.86085888 12.12539427 -37.22412262 11.52908487 -35.58789062 10.93139648 C-27.10480561 7.83361145 -18.6118631 4.79745458 -10 2.07421875 C-9.33540771 1.86199173 -8.67081543 1.64976471 -7.98608398 1.43110657 C-5.19857309 0.56709429 -2.93915854 0 0 0 Z " fill="#0E1212" transform="translate(277,70)"/>
<path d="M0 0 C5.5671191 0.63789906 7.59682873 3.1996505 11.07421875 7.3515625 C19.6132574 19.09490572 22.08553993 33.76341072 21 48 C20.52983946 50.50752288 19.91028099 52.61051239 19 55 C17.68 55 16.36 55 15 55 C14.96261719 53.87464844 14.92523438 52.74929687 14.88671875 51.58984375 C14.14953863 33.00964647 11.6412621 16.44405377 -1 2 C-0.67 1.34 -0.34 0.68 0 0 Z " fill="#141313" transform="translate(218,136)"/>
<path d="M0 0 C1.90234375 0.82421875 1.90234375 0.82421875 4.52734375 2.32421875 C4.95340326 7.68039549 4.95340326 7.68039549 3.12109375 10.44921875 C-3.90624515 16.74235806 -11.6848695 19.44353569 -20.47265625 22.32421875 C-44.97406278 30.42704611 -70.85099287 39.79018673 -89.47265625 58.32421875 C-90.36714245 55.86016244 -90.5699052 54.6271253 -89.7578125 52.09765625 C-86.39028868 45.49171496 -82.35418052 39.89768724 -77.47265625 34.32421875 C-76.96347656 33.73125 -76.45429688 33.13828125 -75.9296875 32.52734375 C-64.78113937 20.49035091 -49.06583741 11.15353988 -33.47265625 6.32421875 C-36.22772809 9.70073537 -39.99676602 11.14608859 -43.84765625 12.94921875 C-59.55935237 20.59384993 -75.84350855 31.65770788 -84.47265625 47.32421875 C-85.15714121 49.49805397 -85.15714121 49.49805397 -85.47265625 51.32421875 C-84.43044922 50.54111328 -84.43044922 50.54111328 -83.3671875 49.7421875 C-62.80833874 34.86373041 -39.41504287 25.67565236 -15.34765625 18.07421875 C-8.02638097 15.75945754 -2.86600106 12.71756356 2.52734375 7.32421875 C2.52734375 6.00421875 2.52734375 4.68421875 2.52734375 3.32421875 C-2.58502406 1.24987143 -6.93596518 1.0799781 -12.34765625 1.19921875 C-13.13140625 1.20824219 -13.91515625 1.21726563 -14.72265625 1.2265625 C-16.6394568 1.24993812 -18.55609816 1.28580222 -20.47265625 1.32421875 C-14.78657704 -2.21723505 -6.28563279 -1.71787436 0 0 Z " fill="#1E1E1E" transform="translate(247.47265625,50.67578125)"/>
<path d="M0 0 C7.21345843 3.2025268 11.058201 9.95949762 14 17 C16.81084967 24.41375126 17.41197755 31.11371817 17.25 39 C17.24484375 40.03511719 17.2396875 41.07023437 17.234375 42.13671875 C17.15539469 49.68921061 17.15539469 49.68921061 16 52 C15.34 52 14.68 52 14 52 C13.98018066 51.44650879 13.96036133 50.89301758 13.93994141 50.32275391 C13.30389171 33.43756733 12.28199309 18.18205944 2 4 C1.30570621 2.6808418 0.62469505 1.35350594 0 0 Z " fill="#D7D7D7" transform="translate(220,138)"/>
<path d="M0 0 C0.66 0 1.32 0 2 0 C2.02505615 0.79696289 2.0501123 1.59392578 2.07592773 2.41503906 C2.19198789 6.02685222 2.31466931 9.63841102 2.4375 13.25 C2.47681641 14.50425781 2.51613281 15.75851563 2.55664062 17.05078125 C2.59853516 18.25605469 2.64042969 19.46132812 2.68359375 20.703125 C2.72025146 21.81333008 2.75690918 22.92353516 2.79467773 24.06738281 C2.96710904 26.53021849 3.29595439 28.64482965 4 31 C4.66 31 5.32 31 6 31 C6.33 23.08 6.66 15.16 7 7 C7.66 6.67 8.32 6.34 9 6 C9.05827558 9.5624308 9.09368885 13.12473819 9.125 16.6875 C9.14175781 17.69490234 9.15851563 18.70230469 9.17578125 19.74023438 C9.18222656 20.71669922 9.18867187 21.69316406 9.1953125 22.69921875 C9.20578613 23.59471436 9.21625977 24.49020996 9.22705078 25.4128418 C8.97353041 28.30161099 8.30494992 30.4154031 7 33 C4.875 33.8125 4.875 33.8125 3 34 C0.54621071 30.31931607 0.69353786 28.31946281 0.5859375 23.92578125 C0.56657135 23.2419487 0.5472052 22.55811615 0.5272522 21.8535614 C0.46756003 19.67333375 0.42111369 17.49305298 0.375 15.3125 C0.33681057 13.8326595 0.29775826 12.352841 0.2578125 10.87304688 C0.16186798 7.2488995 0.07779849 3.62458743 0 0 Z " fill="#0E0E0E" transform="translate(109,162)"/>
<path d="M0 0 C0.66 0.33 1.32 0.66 2 1 C-3.23957066 6.38511429 -7.66939093 9.48507482 -14.6875 12.171875 C-15.42701904 12.45855042 -16.16653809 12.74522583 -16.9284668 13.04058838 C-18.48717001 13.64218664 -20.0471803 14.24040797 -21.60839844 14.83544922 C-23.99664975 15.74871886 -26.37717215 16.68038071 -28.7578125 17.61328125 C-30.27560609 18.19644743 -31.79382174 18.77851655 -33.3125 19.359375 C-34.02301514 19.63948425 -34.73353027 19.91959351 -35.46557617 20.20819092 C-41.57074118 22.50085171 -41.57074118 22.50085171 -45 21 C-43.94087402 20.5968457 -42.88174805 20.19369141 -41.79052734 19.77832031 C-37.84037634 18.27244754 -33.89403159 16.75681003 -29.94873047 15.23828125 C-28.24466647 14.58394136 -26.53959823 13.93221028 -24.83349609 13.28320312 C-22.37325033 12.34678734 -19.91683722 11.40087122 -17.4609375 10.453125 C-16.70444916 10.16753723 -15.94796082 9.88194946 -15.16854858 9.58770752 C-9.37698585 7.33644531 -4.22781495 4.69757216 0 0 Z " fill="#0F1817" transform="translate(271,264)"/>
<path d="M0 0 C0.66 0.33 1.32 0.66 2 1 C-2.51738046 5.64286325 -5.94400886 8.94505508 -12.25 10.6875 C-13.58804687 11.06455078 -13.58804687 11.06455078 -14.953125 11.44921875 C-15.62859375 11.63097656 -16.3040625 11.81273437 -17 12 C-17 11.34 -17 10.68 -17 10 C-16.19175781 9.69707031 -15.38351563 9.39414062 -14.55078125 9.08203125 C-6.32914371 5.88189256 -6.32914371 5.88189256 0 0 Z " fill="#0F2221" transform="translate(271,264)"/>
<path d="M0 0 C3.44429252 1.53079667 6.09516673 3.61654706 9 6 C9.99 6.66 10.98 7.32 12 8 C7.15409462 7.55946315 3.51858133 5.25494123 0 2 C0 1.34 0 0.68 0 0 Z " fill="#0F2322" transform="translate(38,265)"/>
<path d="M0 0 C0.2475 0.639375 0.495 1.27875 0.75 1.9375 C1.81562433 4.18741541 1.81562433 4.18741541 4.125 4.75 C4.74375 4.8325 5.3625 4.915 6 5 C5.34 5.66 4.68 6.32 4 7 C1.9375 6.8125 1.9375 6.8125 0 6 C-1 3 -1 3 0 0 Z " fill="#112120" transform="translate(111,189)"/>
<path d="M0 0 C0.33 0 0.66 0 1 0 C1.33 3.96 1.66 7.92 2 12 C1.01 11.67 0.02 11.34 -1 11 C-0.67 7.37 -0.34 3.74 0 0 Z " fill="#113332" transform="translate(97,183)"/>
</svg>
